<?xml version="1.0" encoding="UTF-8"?><svg xmlns="http://www.w3.org/2000/svg" xmlns:xlink="http://www.w3.org/1999/xlink" height="743.0" preserveAspectRatio="xMidYMid meet" version="1.0" viewBox="-0.0 -0.0 933.8 743.0" width="933.8" zoomAndPan="magnify"><defs><clipPath id="a"><path d="M 141 60 L 933.730469 60 L 933.730469 742.980469 L 141 742.980469 Z M 141 60"/></clipPath></defs><g><g id="change1_1"><path d="M 617.847656 721.902344 C 579.160156 721.902344 540.34375 712.804688 505.585938 695.597656 L 421.125 653.761719 L 329.769531 607.238281 C 298.878906 591.503906 286.542969 553.570312 302.265625 522.679688 C 305.324219 516.753906 309.144531 511.480469 313.675781 506.910156 C 325.386719 495.101562 341.660156 488.328125 358.328125 488.328125 C 368.15625 488.328125 378.003906 490.695312 386.8125 495.167969 L 433.378906 518.882812 L 180.898438 268.464844 C 156.320312 244.089844 156.125 204.269531 180.429688 179.640625 C 180.617188 179.449219 181.378906 178.695312 181.378906 178.695312 C 192.941406 167.472656 208.320312 161.289062 224.683594 161.289062 C 241.671875 161.289062 258.347656 168.160156 270.4375 180.144531 L 372.019531 280.894531 C 363.773438 258.640625 368.511719 232.609375 386.285156 214.671875 L 387.144531 213.84375 L 387.140625 213.84375 C 398.710938 202.613281 414.09375 196.429688 430.449219 196.429688 C 447.4375 196.429688 464.113281 203.304688 476.203125 215.292969 L 480.378906 219.433594 C 471.941406 197.183594 476.101562 171.253906 493.144531 153.410156 L 493.980469 152.546875 C 505.878906 140.5625 521.734375 133.960938 538.628906 133.960938 C 555.332031 133.960938 571.054688 140.433594 582.902344 152.1875 L 598.382812 167.539062 C 589.941406 145.285156 594.113281 119.347656 611.1875 101.5 C 611.496094 101.175781 611.824219 100.839844 612.164062 100.507812 C 624.046875 88.613281 639.835938 82.066406 656.652344 82.066406 C 673.34375 82.066406 689.0625 88.539062 700.917969 100.289062 L 833.050781 231.351562 L 840.867188 239.089844 C 841 239.222656 850.402344 248.753906 854.683594 254.398438 C 907.714844 317.503906 925.109375 399.320312 903.664062 484.855469 C 895.703125 516.601562 882.128906 546.199219 863.316406 572.820312 C 854.953125 584.777344 845.273438 596.339844 834.605469 607.101562 L 792.632812 649.429688 C 790.710938 651.355469 788.816406 653.203125 786.910156 655.027344 C 741.484375 698.167969 681.460938 721.902344 617.847656 721.902344" fill="#fff"/></g><g clip-path="url(#a)" id="change2_6"><path d="M 656.65625 60.988281 L 656.648438 60.988281 C 634.253906 60.992188 613.230469 69.683594 597.382812 85.480469 C 596.726562 86.125 596.21875 86.652344 595.941406 86.941406 C 586.449219 96.863281 579.726562 108.738281 576.113281 121.664062 C 564.613281 115.921875 551.851562 112.882812 538.628906 112.882812 C 516.074219 112.882812 494.90625 121.695312 479.023438 137.695312 L 478.765625 137.957031 L 478.511719 138.21875 L 478.441406 138.289062 L 478.386719 138.351562 L 478.191406 138.546875 L 477.898438 138.851562 C 466.984375 150.28125 459.734375 164.285156 456.671875 179.5 C 448.230469 176.78125 439.375 175.351562 430.449219 175.351562 C 408.648438 175.351562 388.117188 183.597656 372.609375 198.570312 C 372.464844 198.714844 372.316406 198.855469 372.167969 199 L 371.804688 199.34375 L 371.316406 199.835938 C 362.257812 208.976562 355.734375 219.691406 351.742188 231.097656 L 285.28125 165.183594 C 269.269531 149.308594 247.183594 140.210938 224.679688 140.210938 C 202.808594 140.210938 182.21875 148.507812 166.695312 163.570312 L 166.136719 164.113281 L 165.96875 164.289062 C 165.777344 164.480469 165.59375 164.664062 165.410156 164.851562 C 132.976562 197.738281 133.246094 250.890625 166.058594 283.433594 L 351.660156 467.519531 C 331.785156 469.132812 312.78125 477.878906 298.710938 492.066406 C 292.660156 498.171875 287.574219 505.183594 283.585938 512.917969 L 283.53125 513.015625 L 283.480469 513.117188 C 262.488281 554.359375 278.957031 605.007812 320.191406 626.019531 L 411.558594 672.546875 L 411.980469 672.757812 L 496.230469 714.484375 C 533.882812 733.128906 575.933594 742.980469 617.84375 742.980469 C 686.886719 742.980469 752.066406 717.1875 801.378906 670.351562 L 801.429688 670.308594 L 801.476562 670.261719 C 803.539062 668.289062 805.566406 666.304688 807.496094 664.371094 L 807.550781 664.320312 L 807.601562 664.269531 L 849.570312 621.945312 C 861.058594 610.359375 871.488281 597.898438 880.589844 584.90625 C 900.878906 556.171875 915.519531 524.234375 924.109375 489.980469 C 947.214844 397.839844 928.378906 309.515625 871.070312 241.132812 C 865.539062 234.015625 855.878906 224.289062 855.773438 224.1875 L 855.695312 224.109375 L 847.867188 216.359375 L 817.699219 186.4375 L 715.769531 85.328125 C 699.929688 69.628906 678.9375 60.988281 656.65625 60.988281 Z M 656.652344 103.148438 C 667.292969 103.144531 677.929688 107.179688 686.078125 115.257812 L 788.011719 216.371094 L 818.210938 246.320312 L 826.039062 254.070312 C 828.648438 256.667969 836.082031 264.578125 838.144531 267.480469 C 890.214844 329.113281 901.867188 405.355469 883.21875 479.726562 C 876.0625 508.261719 863.71875 535.730469 846.105469 560.660156 C 838.339844 571.753906 829.492188 582.320312 819.636719 592.261719 L 777.664062 634.585938 C 775.914062 636.339844 774.136719 638.074219 772.347656 639.785156 C 729.835938 680.160156 674.214844 700.824219 617.84375 700.824219 C 582.847656 700.824219 547.566406 692.863281 514.9375 676.707031 L 430.691406 634.980469 L 339.332031 588.457031 C 318.761719 577.976562 310.582031 552.808594 321.050781 532.242188 C 323.097656 528.277344 325.652344 524.769531 328.644531 521.75 C 336.53125 513.796875 347.28125 509.40625 358.328125 509.40625 C 364.707031 509.40625 371.1875 510.871094 377.265625 513.960938 L 454.070312 553.074219 L 458.359375 555.257812 C 460.757812 556.480469 463.136719 557.023438 465.386719 557.023438 C 469.421875 557.023438 473.0625 555.28125 475.738281 552.582031 C 481.074219 547.1875 482.589844 537.996094 475.75 531.21875 L 195.742188 253.5 C 179.371094 237.261719 179.253906 210.773438 195.5 194.378906 C 195.679688 194.191406 195.878906 194.011719 196.058594 193.820312 C 204.007812 186.109375 214.3125 182.367188 224.679688 182.367188 C 235.863281 182.367188 247.121094 186.714844 255.597656 195.113281 L 488.171875 425.785156 C 491.722656 429.316406 496.386719 431.082031 501.042969 431.082031 C 505.492188 431.035156 509.933594 429.390625 513.398438 426.148438 C 513.550781 426.003906 513.691406 425.863281 513.84375 425.71875 C 520.933594 418.570312 520.355469 406.515625 513.148438 399.359375 L 401.503906 288.632812 C 385.128906 272.394531 385.011719 245.902344 401.257812 229.511719 C 401.445312 229.335938 401.636719 229.140625 401.824219 228.964844 C 409.773438 221.25 420.078125 217.507812 430.449219 217.507812 C 441.628906 217.507812 452.886719 221.851562 461.363281 230.257812 L 588.113281 355.984375 C 591.679688 359.511719 596.339844 361.265625 601 361.277344 C 605.4375 361.234375 609.878906 359.59375 613.351562 356.328125 C 613.496094 356.203125 613.648438 356.058594 613.78125 355.90625 C 620.871094 348.757812 620.296875 336.707031 613.09375 329.5625 L 510.175781 227.488281 C 493.847656 211.277344 492.496094 184.605469 508.386719 167.96875 C 508.578125 167.773438 508.761719 167.585938 508.941406 167.398438 C 517.113281 159.160156 527.871094 155.039062 538.628906 155.039062 C 549.273438 155.039062 559.917969 159.074219 568.0625 167.152344 L 690.648438 288.734375 C 694.191406 292.25 698.816406 294.007812 703.445312 294.007812 C 708.121094 294.007812 712.796875 292.210938 716.351562 288.625 C 723.417969 281.5 723.382812 270 716.242188 262.9375 L 628.195312 175.597656 C 611.851562 159.394531 610.511719 132.699219 626.417969 116.070312 C 626.601562 115.882812 626.777344 115.695312 626.964844 115.519531 C 635.140625 107.273438 645.898438 103.148438 656.652344 103.148438" fill="inherit"/></g><g id="change2_1"><path d="M 82.800781 60.65625 C 77.042969 60.679688 71.636719 62.933594 67.570312 67 C 67.546875 67.023438 67.527344 67.042969 67.503906 67.066406 C 59.09375 75.550781 59.148438 89.296875 67.636719 97.71875 L 125.007812 154.320312 C 129.113281 158.394531 134.566406 160.625 140.355469 160.601562 C 146.109375 160.578125 151.515625 158.324219 155.582031 154.257812 C 155.605469 154.234375 155.628906 154.214844 155.648438 154.191406 C 159.726562 150.082031 161.957031 144.632812 161.933594 138.84375 C 161.910156 133.054688 159.632812 127.625 155.515625 123.539062 L 98.148438 66.941406 C 94.039062 62.863281 88.589844 60.632812 82.800781 60.65625" fill="inherit"/></g><g id="change2_2"><path d="M 243.792969 21.585938 C 243.742188 9.636719 233.980469 -0.0429688 222.035156 0.00390625 C 210.085938 0.0546875 200.40625 9.8125 200.453125 21.777344 L 200.996094 95.597656 C 201.050781 107.546875 210.808594 117.226562 222.757812 117.175781 C 228.695312 117.152344 234.074219 114.730469 237.980469 110.824219 C 241.925781 106.878906 244.359375 101.421875 244.335938 95.40625 L 243.792969 21.585938" fill="inherit"/></g><g id="change2_3"><path d="M 21.757812 200.460938 C 9.808594 200.410156 0.0507812 210.09375 0 222.039062 C -0.046875 233.988281 9.632812 243.746094 21.566406 243.796875 L 95.414062 244.339844 C 101.421875 244.367188 106.871094 241.933594 110.816406 237.984375 C 114.722656 234.085938 117.148438 228.703125 117.171875 222.761719 C 117.222656 210.8125 107.539062 201.054688 95.605469 201.003906 L 21.757812 200.460938" fill="inherit"/></g><g id="change2_4"><path d="M 371 37.355469 C 365.210938 37.378906 359.847656 39.679688 355.695312 43.773438 L 299.097656 101.140625 C 295.019531 105.25 292.789062 110.699219 292.8125 116.488281 C 292.839844 122.277344 295.113281 127.707031 299.222656 131.785156 C 307.683594 140.175781 321.386719 140.140625 329.8125 131.714844 C 329.835938 131.691406 329.855469 131.671875 329.875 131.648438 L 386.476562 74.28125 C 394.890625 65.796875 394.832031 52.050781 386.347656 43.636719 C 382.238281 39.5625 376.789062 37.328125 371 37.355469" fill="inherit"/></g><g id="change2_5"><path d="M 103.726562 297.902344 C 103.703125 297.921875 103.683594 297.945312 103.660156 297.96875 L 47.058594 355.335938 C 42.984375 359.445312 40.753906 364.894531 40.777344 370.683594 C 40.800781 376.472656 43.078125 381.902344 47.1875 385.980469 C 51.296875 390.054688 56.746094 392.285156 62.535156 392.261719 C 68.292969 392.238281 73.699219 389.988281 77.773438 385.910156 C 77.792969 385.890625 77.816406 385.867188 77.839844 385.847656 L 134.4375 328.476562 C 138.515625 324.367188 140.746094 318.917969 140.722656 313.132812 C 140.699219 307.34375 138.421875 301.910156 134.3125 297.835938 C 130.203125 293.757812 124.753906 291.527344 118.964844 291.550781 C 113.207031 291.574219 107.804688 293.824219 103.726562 297.902344" fill="inherit"/></g></g></svg>